<svg xmlns="http://www.w3.org/2000/svg" xmlns:xlink="http://www.w3.org/1999/xlink" width="42" height="42" viewBox="0 0 42 42"><defs><path id="hyvfa" d="M358 1962v-42h42v42zm1-3a2 2 0 0 0 2 2h36a2 2 0 0 0 2-2v-36a2 2 0 0 0-2-2h-36a2 2 0 0 0-2 2z"/><path id="hyvfb" d="M359 1923a2 2 0 0 1 2-2h36a2 2 0 0 1 2 2v36a2 2 0 0 1-2 2h-36a2 2 0 0 1-2-2z"/><clipPath id="hyvfc"><use fill="#fff" xlink:href="#hyvfa"/></clipPath></defs><g><g transform="translate(-358 -1920)"><g><use fill="#15a4fa" xlink:href="#hyvfb"/><use fill="#fff" fill-opacity="0" stroke="#fff" stroke-linecap="round" stroke-linejoin="round" stroke-miterlimit="50" stroke-width="2" clip-path="url(&quot;#hyvfc&quot;)" xlink:href="#hyvfb"/></g><g><g fill="#fff" font-family="'FontAwesome','FontAwesome'" font-size="15" font-style="none" font-weight="400"><text dominant-baseline="text-before-edge" font-family="Helvetica, Arial, sans-serif" transform="translate(372 1935)"><tspan letter-spacing=".38" style="font-kerning:normal"></tspan></text></g></g></g></g></svg>